<?xml version="1.0" standalone="no"?>
<!DOCTYPE svg PUBLIC "-//W3C//DTD SVG 20010904//EN"
 "http://www.w3.org/TR/2001/REC-SVG-20010904/DTD/svg10.dtd">
<svg version="1.0" xmlns="http://www.w3.org/2000/svg"
 width="1667.000000pt" height="2048.000000pt" viewBox="0 0 1667.000000 2048.000000"
 preserveAspectRatio="xMidYMid meet">

<g transform="translate(0.000000,2048.000000) scale(0.100000,-0.100000)"
fill="#FFFFFF" stroke="none">
<path d="M12227 20469 c-864 -83 -1879 -584 -2591 -1279 -762 -742 -1276
-1775 -1367 -2741 -13 -149 -7 -502 11 -601 l13 -66 85 -12 c126 -18 434 -8
592 20 604 105 1233 403 1795 848 170 135 484 453 639 647 225 282 416 584
571 900 225 461 358 897 431 1410 21 148 30 611 15 730 -21 165 -17 155 -65
154 -22 -1 -81 -6 -129 -10z"/>
<path d="M11840 15523 c-233 -14 -548 -65 -825 -133 -364 -90 -637 -183 -1280
-435 -521 -205 -683 -262 -893 -315 -266 -67 -499 -65 -787 6 -204 51 -353
103 -888 316 -515 204 -703 272 -947 343 -594 171 -1068 210 -1665 134 -644
-82 -1268 -295 -1830 -627 -1093 -645 -1910 -1687 -2350 -2997 -325 -967 -439
-2064 -339 -3270 91 -1104 361 -2276 779 -3385 269 -712 632 -1462 993 -2050
330 -537 995 -1439 1408 -1910 769 -876 1482 -1248 2278 -1192 419 30 685 105
1331 374 416 174 590 239 805 301 652 189 1387 205 2025 46 267 -67 420 -122
875 -316 564 -241 780 -309 1135 -358 158 -22 496 -30 630 -16 621 67 1187
375 1750 952 344 353 692 796 1192 1519 551 797 1042 1770 1347 2670 93 274
94 276 64 285 -101 32 -486 243 -688 378 -1156 772 -1853 1885 -2004 3197
-126 1091 115 2129 699 3015 338 513 828 1003 1353 1354 67 45 122 87 122 93
0 17 -137 200 -256 343 -843 1008 -2034 1587 -3444 1675 -152 9 -458 11 -590
3z"/>
</g>
</svg>
