<svg width="102" height="15" viewBox="0 0 102 15" fill="none" xmlns="http://www.w3.org/2000/svg">
<path d="M7.64 14.24C5.62667 14.24 3.96 13.5933 2.64 12.3C1.33333 10.9933 0.68 9.34 0.68 7.34C0.68 5.34 1.33333 3.69333 2.64 2.4C3.96 1.09333 5.62667 0.439999 7.64 0.439999C9.66667 0.439999 11.3333 1.08667 12.64 2.38C13.96 3.67333 14.62 5.32667 14.62 7.34C14.62 9.35333 13.96 11.0067 12.64 12.3C11.3333 13.5933 9.66667 14.24 7.64 14.24ZM4.7 10.48C5.44667 11.3067 6.42667 11.72 7.64 11.72C8.85333 11.72 9.83333 11.3067 10.58 10.48C11.3267 9.65333 11.7 8.60667 11.7 7.34C11.7 6.07333 11.3267 5.02667 10.58 4.2C9.83333 3.37333 8.85333 2.96 7.64 2.96C6.42667 2.96 5.44667 3.37333 4.7 4.2C3.96667 5.02667 3.6 6.07333 3.6 7.34C3.6 8.60667 3.96667 9.65333 4.7 10.48ZM20.953 14H18.113V0.659999H24.353C25.753 0.659999 26.8463 1.07333 27.633 1.9C28.433 2.71333 28.833 3.73333 28.833 4.96C28.833 6.17333 28.433 7.19333 27.633 8.02C26.833 8.84667 25.7396 9.26 24.353 9.26H20.953V14ZM23.973 6.76C24.5463 6.76 25.013 6.6 25.373 6.28C25.7463 5.94667 25.933 5.50667 25.933 4.96C25.933 4.41333 25.7463 3.98 25.373 3.66C25.013 3.32667 24.5463 3.16 23.973 3.16H20.953V6.76H23.973ZM38.0334 14H35.1734V3.16H31.2734V0.659999H41.9134V3.16H38.0334V14ZM48.0741 14H45.2341V0.659999H48.0741V14ZM66.6823 14H63.8223V4.66L60.0623 14H58.8223L55.0623 4.66V14H52.2223V0.659999H56.2023L59.4423 8.72L62.6823 0.659999H66.6823V14ZM81.3317 12.74C80.3184 13.74 78.8251 14.24 76.8517 14.24C74.8784 14.24 73.3784 13.74 72.3517 12.74C71.3384 11.7267 70.8317 10.3733 70.8317 8.68V0.659999H73.7117V8.58C73.7117 9.54 73.9851 10.3067 74.5317 10.88C75.0784 11.44 75.8517 11.72 76.8517 11.72C77.8517 11.72 78.6184 11.44 79.1517 10.88C79.6984 10.3067 79.9717 9.54 79.9717 8.58V0.659999H82.8717V8.66C82.8717 10.38 82.3584 11.74 81.3317 12.74ZM101.46 14H98.5997V4.66L94.8397 14H93.5997L89.8397 4.66V14H86.9997V0.659999H90.9797L94.2197 8.72L97.4597 0.659999H101.46V14Z" fill="#0A20E6"/>
</svg>
